<svg width="188" height="45" viewBox="0 0 188 45" fill="none" xmlns="http://www.w3.org/2000/svg">
<path fill-rule="evenodd" clip-rule="evenodd" d="M10.3631 7.39123C9.34081 7.39123 8.3025 7.47541 7.20806 7.59167C6.95389 7.62487 6.71781 7.74114 6.53655 7.9224C6.3553 8.10365 6.23903 8.33973 6.20583 8.59391C6.09358 9.68033 6.0134 10.7186 6.0134 11.7409C6.0134 12.7672 6.09358 13.8015 6.20182 14.8879C6.23521 15.1427 6.35207 15.3792 6.53412 15.5606C6.71617 15.7419 6.95316 15.8578 7.20806 15.8902C8.3025 16.0104 9.34081 16.0906 10.3631 16.0906C11.3854 16.0906 12.4237 16.0104 13.5181 15.8902C13.7723 15.857 14.0084 15.7407 14.1896 15.5594C14.3709 15.3782 14.4872 15.1421 14.5204 14.8879C14.6326 13.8055 14.7128 12.7632 14.7128 11.7409C14.7128 10.7186 14.6326 9.68033 14.5244 8.59791C14.491 8.34315 14.3741 8.10662 14.1921 7.92529C14.01 7.74397 13.773 7.62806 13.5181 7.59568C12.471 7.46963 11.4177 7.40271 10.3631 7.39524M6.57064 1.61836C7.74526 1.49409 9.02411 1.38184 10.3631 1.38184C11.7021 1.38184 12.9809 1.49409 14.1555 1.61836C15.7822 1.79752 17.2987 2.52728 18.4537 3.68663C19.6087 4.84597 20.3327 6.36526 20.5057 7.99257C20.626 9.15516 20.7262 10.426 20.7262 11.7449C20.7262 13.0639 20.626 14.3347 20.5057 15.5013C20.3327 17.1286 19.6087 18.6479 18.4537 19.8072C17.2987 20.9666 15.7822 21.6963 14.1555 21.8755C12.8964 22.0196 11.6304 22.0972 10.3631 22.108C9.02411 22.108 7.74526 21.9998 6.57064 21.8755C4.944 21.6963 3.42746 20.9666 2.27249 19.8072C1.11752 18.6479 0.393501 17.1286 0.220492 15.5013C0.0817079 14.2539 0.00811046 13 0 11.7449C0 10.422 0.100224 9.15917 0.220492 7.98856C0.561251 4.64511 3.23922 1.97516 6.57064 1.61435" fill="#4C80F1"/>
<path fill-rule="evenodd" clip-rule="evenodd" d="M32.8097 37.3817C32.0122 37.3817 31.2475 37.0649 30.6836 36.5011C30.1197 35.9372 29.803 35.1725 29.803 34.375V31.2561H26.7963C25.9988 31.2561 25.2341 30.9393 24.6702 30.3754C24.1063 29.8116 23.7896 29.0468 23.7896 28.2494C23.7896 27.4519 24.1063 26.6872 24.6702 26.1233C25.2341 25.5595 25.9988 25.2427 26.7963 25.2427H32.8097C33.6071 25.2427 34.3719 25.5595 34.9357 26.1233C35.4996 26.6872 35.8164 27.4519 35.8164 28.2494V34.375C35.8164 35.1725 35.4996 35.9372 34.9357 36.5011C34.3719 37.0649 33.6071 37.3817 32.8097 37.3817ZM18.9989 37.3256C18.2015 37.3256 17.4367 37.0088 16.8728 36.445C16.309 35.8811 15.9922 35.1163 15.9922 34.3189V28.3055C15.9922 27.5081 16.309 26.7433 16.8728 26.1794C17.4367 25.6156 18.2015 25.2988 18.9989 25.2988C19.7963 25.2988 20.5611 25.6156 21.1249 26.1794C21.6888 26.7433 22.0056 27.5081 22.0056 28.3055V34.3189C22.0056 35.1163 21.6888 35.8811 21.1249 36.445C20.5611 37.0088 19.7963 37.3256 18.9989 37.3256Z" fill="#4C80F1"/>
<path d="M35.1763 21.2231C35.7402 20.6592 36.0569 19.8945 36.0569 19.097C36.0569 18.2996 35.7402 17.5348 35.1763 16.971C34.6124 16.4071 33.8477 16.0903 33.0502 16.0903H27.0369C26.2394 16.0903 25.4747 16.4071 24.9108 16.971C24.3469 17.5348 24.0302 18.2996 24.0302 19.097C24.0302 19.8945 24.3469 20.6592 24.9108 21.2231C25.4747 21.787 26.2394 22.1037 27.0369 22.1037H33.0502C33.8477 22.1037 34.6124 21.787 35.1763 21.2231Z" fill="#9EEF57"/>
<path d="M63.8374 36.1645C61.1677 36.1645 59.2518 35.4421 58.0897 33.9973C56.959 32.5212 56.3937 30.4639 56.3937 27.8256V15.388H52.4362V11.0537H56.3937V3.84554H61.2462V11.0537H68.8313V15.388H61.2462V27.0247C61.2462 27.9042 61.3247 28.7051 61.4818 29.4275C61.6702 30.1499 62.0157 30.7152 62.5182 31.1235C63.0208 31.5318 63.7432 31.7517 64.6854 31.7831C65.4078 31.7831 66.036 31.6574 66.5699 31.4062C67.1352 31.1549 67.5907 30.8722 67.9361 30.5582L69.8206 34.1858C69.2239 34.6569 68.5957 35.0495 67.9361 35.3636C67.308 35.6463 66.6484 35.8504 65.9574 35.9761C65.2665 36.1017 64.5598 36.1645 63.8374 36.1645ZM83.4489 36.1645C80.8735 36.1645 78.6906 35.6463 76.9003 34.6098C75.1101 33.5419 73.7438 32.05 72.8016 30.1341C71.8907 28.2183 71.4353 26.004 71.4353 23.4913C71.4353 20.9473 71.9064 18.733 72.8487 16.8485C73.7909 14.9326 75.1572 13.4407 76.9475 12.3728C78.7377 11.2736 80.9206 10.7239 83.4961 10.7239C86.0715 10.7239 88.2544 11.2736 90.0446 12.3728C91.8349 13.4407 93.1855 14.9326 94.0963 16.8485C95.0071 18.7644 95.4625 20.9944 95.4625 23.5384C95.4625 26.0197 94.9914 28.2183 94.0492 30.1341C93.1383 32.05 91.7878 33.5419 89.9975 34.6098C88.2387 35.6463 86.0558 36.1645 83.4489 36.1645ZM83.4489 31.8302C85.145 31.8302 86.5112 31.4533 87.5477 30.6995C88.6156 29.9457 89.4008 28.9406 89.9033 27.6843C90.4058 26.3966 90.6571 24.9989 90.6571 23.4913C90.6571 21.9837 90.4058 20.6018 89.9033 19.3455C89.4008 18.0891 88.6156 17.0841 87.5477 16.3303C86.5112 15.5451 85.145 15.1525 83.4489 15.1525C81.7843 15.1525 80.4181 15.5451 79.3502 16.3303C78.2823 17.0841 77.4971 18.0891 76.9946 19.3455C76.5234 20.6018 76.2879 21.9837 76.2879 23.4913C76.2879 25.0303 76.5234 26.428 76.9946 27.6843C77.4971 28.9406 78.2823 29.9457 79.3502 30.6995C80.4181 31.4533 81.7843 31.8302 83.4489 31.8302ZM99.5002 35.8818V11.0537H104.07L104.306 14.6342C104.934 13.6606 105.656 12.8911 106.473 12.3257C107.289 11.7604 108.185 11.3521 109.158 11.1008C110.132 10.8496 111.153 10.7239 112.221 10.7239C112.503 10.7239 112.77 10.7239 113.021 10.7239C113.273 10.7239 113.508 10.7239 113.728 10.7239V15.388H112.221C110.43 15.388 108.938 15.7492 107.745 16.4716C106.583 17.194 105.719 18.1991 105.154 19.4868C104.62 20.7745 104.353 22.2507 104.353 23.9153V35.8818H99.5002ZM126.03 36.1645C123.549 36.1645 121.491 35.6149 119.858 34.5156C118.256 33.3849 117.047 31.8616 116.231 29.9457C115.445 28.0298 115.053 25.8783 115.053 23.4913C115.053 21.0729 115.461 18.9057 116.278 16.9898C117.094 15.0425 118.335 13.5192 120 12.42C121.664 11.2893 123.769 10.7239 126.313 10.7239C127.255 10.7239 128.197 10.8338 129.139 11.0537C130.113 11.2736 131.008 11.6191 131.825 12.0902C132.673 12.5299 133.395 13.1266 133.992 13.8804V2.57351H138.844V35.8818H134.18L133.992 32.4898C133.427 33.3378 132.72 34.0445 131.872 34.6098C131.055 35.1437 130.144 35.5363 129.139 35.7876C128.134 36.0389 127.098 36.1645 126.03 36.1645ZM126.831 31.8302C128.433 31.8302 129.752 31.4376 130.788 30.6524C131.856 29.8672 132.657 28.8307 133.191 27.543C133.725 26.2552 133.992 24.8576 133.992 23.35C133.992 21.811 133.725 20.429 133.191 19.2041C132.688 17.9478 131.903 16.9584 130.835 16.236C129.799 15.4823 128.464 15.1054 126.831 15.1054C125.135 15.1054 123.784 15.498 122.779 16.2832C121.774 17.037 121.036 18.0577 120.565 19.3455C120.125 20.6332 119.905 22.0466 119.905 23.5856C119.905 24.7162 120.031 25.7841 120.282 26.7892C120.533 27.7628 120.926 28.6423 121.46 29.4275C122.025 30.1813 122.748 30.778 123.627 31.2177C124.507 31.626 125.574 31.8302 126.831 31.8302ZM161.851 44.9274V32.4898C160.971 33.8403 159.809 34.7983 158.364 35.3636C156.92 35.8975 155.428 36.1645 153.889 36.1645C152.004 36.1645 150.371 35.8504 148.989 35.2223C147.607 34.5627 146.461 33.6676 145.55 32.5369C144.67 31.4062 144.011 30.0713 143.571 28.5323C143.131 26.9933 142.912 25.3287 142.912 23.5384C142.912 21.12 143.32 18.9371 144.136 16.9898C144.984 15.0425 146.241 13.5192 147.905 12.42C149.57 11.2893 151.659 10.7239 154.171 10.7239C155.585 10.7239 156.998 10.9909 158.411 11.5248C159.825 12.0274 160.987 12.844 161.898 13.9747L162.133 11.0537H166.703V44.9274H161.851ZM154.737 31.8302C156.244 31.8302 157.532 31.4533 158.6 30.6995C159.668 29.9457 160.469 28.9249 161.003 27.6372C161.568 26.3495 161.851 24.9361 161.851 23.3971C161.851 21.8267 161.584 20.429 161.05 19.2041C160.516 17.9478 159.715 16.9584 158.647 16.236C157.611 15.4823 156.291 15.1054 154.69 15.1054C153.025 15.1054 151.69 15.4823 150.685 16.236C149.68 16.9898 148.942 18.0106 148.471 19.2983C148 20.5547 147.764 21.9366 147.764 23.4442C147.764 25.0146 148 26.4437 148.471 27.7314C148.942 28.9878 149.696 29.9928 150.732 30.7466C151.769 31.469 153.103 31.8302 154.737 31.8302ZM171.713 35.8818V11.0537H176.282L176.518 14.6342C177.146 13.6606 177.869 12.8911 178.685 12.3257C179.502 11.7604 180.397 11.3521 181.371 11.1008C182.344 10.8496 183.365 10.7239 184.433 10.7239C184.716 10.7239 184.982 10.7239 185.234 10.7239C185.485 10.7239 185.721 10.7239 185.94 10.7239V15.388H184.433C182.643 15.388 181.151 15.7492 179.957 16.4716C178.795 17.194 177.931 18.1991 177.366 19.4868C176.832 20.7745 176.565 22.2507 176.565 23.9153V35.8818H171.713Z" fill="#040101"/>
</svg>
